<svg xmlns="http://www.w3.org/2000/svg" width="73" height="72" viewBox="0 0 73 72"><g transform="translate(0 -0.243)"><g transform="translate(0)"><rect width="73" height="72" transform="translate(0 0.243)" fill="none"/></g><g transform="translate(6.019 9.987)"><path d="M44.1,10.016V41.6l5.866,5.866a6.911,6.911,0,0,0,.15-1.354v-36.1A6.034,6.034,0,0,0,44.1,4H6.5l6.016,6.016Z" transform="translate(7.187 -1.955)"/><path d="M5.77,3.32,1.95,7.14,5.108,10.3v37.18a6.034,6.034,0,0,0,6.016,6.016H48.3l6.2,6.2,3.82-3.82ZM41.205,47.479H11.125V16.315L42.288,47.479Z" transform="translate(-1.95 -3.32)"/></g></g></svg>