<svg xmlns="http://www.w3.org/2000/svg" width="72" height="72" viewBox="0 0 72 72"><g transform="translate(0.038 0.036)"><rect width="72" height="72" transform="translate(-0.038 -0.036)" fill="none"/><g transform="translate(3.401 3.401)"><path d="M34.66,2A32.66,32.66,0,1,0,67.32,34.66,32.672,32.672,0,0,0,34.66,2Zm16,44.058-4.572,4.572a1.617,1.617,0,0,1-2.319,0L32.635,39.494a11.3,11.3,0,0,1-13.75-16.036l7.675,7.675,4.605-4.605L23.49,18.885a11.3,11.3,0,0,1,16.036,13.75L50.663,43.772A1.637,1.637,0,0,1,50.663,46.058Z" transform="translate(-2 -2)" fill-rule="evenodd"/></g></g></svg>