<svg xmlns="http://www.w3.org/2000/svg" width="72.194" height="72.194" viewBox="0 0 72.194 72.194"><path d="M0,0H72.194V72.194H0Z" fill="none"/><path d="M50.129,25.057v6.016H62.162V25.057ZM44.113,44.94C47,47.076,50.761,49.9,53.739,52.129c1.2-1.594,2.406-3.219,3.61-4.813-2.978-2.226-6.738-5.054-9.626-7.219C46.52,41.721,45.316,43.346,44.113,44.94ZM57.349,8.813c-1.2-1.594-2.406-3.219-3.61-4.813C50.761,6.226,47,9.054,44.113,11.219c1.2,1.594,2.406,3.219,3.61,4.813C50.611,13.867,54.371,11.069,57.349,8.813ZM8.016,19.04A6.034,6.034,0,0,0,2,25.057v6.016a6.034,6.034,0,0,0,6.016,6.016h3.008V49.121H17.04V37.089h3.008l15.04,9.024v-36.1L20.048,19.04Zm34.593,9.024A13.476,13.476,0,0,0,38.1,17.988V38.112A13.363,13.363,0,0,0,42.609,28.065Z" transform="translate(4.016 8.032)"/></svg>