<svg xmlns="http://www.w3.org/2000/svg" width="72" height="72" viewBox="0 0 72 72"><g transform="translate(0.143 0.036)"><rect width="72" height="72" transform="translate(-0.143 -0.036)" fill="none"/><g transform="translate(6.262 7.79)"><rect width="8.946" height="25.286" transform="translate(34.837 37.451) rotate(-45)" fill="#040404"/><path d="M48.021,24.641A10.448,10.448,0,0,0,58.458,14.2a10.3,10.3,0,0,0-1.223-4.771l-8.051,8.051-4.443-4.443,8.051-8.051a10.3,10.3,0,0,0-4.771-1.223A10.448,10.448,0,0,0,37.585,14.2a10.169,10.169,0,0,0,.626,3.459L32.694,23.18l-5.308-5.308L29.5,15.755l-4.2-4.2,6.322-6.322a8.945,8.945,0,0,0-12.643,0L8.422,15.785l4.2,4.2H4.217L2.1,22.107,12.656,32.663l2.117-2.117V22.107l4.2,4.2,2.117-2.117L26.4,29.5,4.307,51.6l6.322,6.322,33.934-33.9A10.169,10.169,0,0,0,48.021,24.641Z" transform="translate(-2.1 -2.613)"/></g></g></svg>