<svg xmlns="http://www.w3.org/2000/svg" width="60.162" height="54.146" viewBox="0 0 60.162 54.146"><g transform="translate(-6.016 -9.024)"><path d="M62.162,21.048V15.032H56.145V9.016A6.034,6.034,0,0,0,50.129,3H8.016A6.034,6.034,0,0,0,2,9.016V51.129a6.034,6.034,0,0,0,6.016,6.016H50.129a6.034,6.034,0,0,0,6.016-6.016V45.113h6.016V39.1H56.145V33.081h6.016V27.065H56.145V21.048ZM50.129,51.129H8.016V9.016H50.129Zm-36.1-18.048h15.04V45.113H14.032ZM32.081,15.032H44.113v9.024H32.081Zm-18.048,0h15.04v15.04H14.032ZM32.081,27.065H44.113V45.113H32.081Z" transform="translate(4.016 6.024)" fill="#040404"/></g></svg>