<svg xmlns="http://www.w3.org/2000/svg" width="72.194" height="72.194" viewBox="0 0 72.194 72.194"><path d="M0,0H72.194V72.194H0Z" fill="none"/><path d="M69.186,29.1l-15.04-.03a3.017,3.017,0,0,0-3.008,3.008V59.154a3.017,3.017,0,0,0,3.008,3.008h15.04a3.017,3.017,0,0,0,3.008-3.008V32.081A2.991,2.991,0,0,0,69.186,29.1Zm0,27.043H54.145V35.089h15.04ZM60.162,2H6.016A6,6,0,0,0,0,8.016v36.1a6.014,6.014,0,0,0,6.016,6.016H27.073v6.016H21.057v6.016H45.121V56.145H39.105V50.129h6.016V44.113H6.016V8.016H60.162v15.04h6.016V8.016A6.014,6.014,0,0,0,60.162,2ZM36.007,23.057l-2.918-9.024-2.918,9.024H21.057l7.43,5.294L25.659,37.1l7.43-5.415,7.43,5.415-2.828-8.754,7.43-5.294Z" transform="translate(0 4.016)"/></svg>