<svg xmlns="http://www.w3.org/2000/svg" width="16.065" height="15.365" viewBox="0 0 16.065 15.365"><path d="M16.072,18.969V24.91H12.628V19.367c0-1.393-.5-2.344-1.745-2.344a1.885,1.885,0,0,0-1.767,1.263,2.357,2.357,0,0,0-.114.84v5.786H5.556s.046-9.388,0-10.361H9v1.468l-.023.033H9v-.033a3.421,3.421,0,0,1,3.1-1.712C14.372,14.306,16.072,15.787,16.072,18.969ZM1.952,9.555a1.8,1.8,0,1,0-.046,3.581h.023a1.8,1.8,0,1,0,.023-3.581ZM.207,24.91H3.651V14.549H.207Z" transform="translate(-0.006 -9.549)" fill="#fff"/></svg>