<svg xmlns="http://www.w3.org/2000/svg" width="70.913" height="70.913" viewBox="0 0 70.913 70.913"><path d="M0,0H70.913V70.913H0Z" fill="none"/><path d="M48.321,1H18.774a5.927,5.927,0,0,0-5.909,5.909v8.864h5.909V9.864H48.321V57.14H18.774V51.23H12.864v8.864A5.927,5.927,0,0,0,18.774,66H48.321a5.927,5.927,0,0,0,5.909-5.909V6.909A5.927,5.927,0,0,0,48.321,1ZM24.092,30.547V26.115c0-4.137-4.137-7.387-8.273-7.387s-8.273,3.25-8.273,7.387v4.432A3.813,3.813,0,0,0,4,34.093V44.434a3.869,3.869,0,0,0,3.546,3.841H23.8a3.869,3.869,0,0,0,3.841-3.546V34.388A3.869,3.869,0,0,0,24.092,30.547Zm-3.841,0H11.387V26.115c0-2.364,2.068-3.841,4.432-3.841s4.432,1.477,4.432,3.841Z" transform="translate(7.819 1.955)" fill="#040404"/><path d="M51.065,1H21.518a5.927,5.927,0,0,0-5.909,5.909v8.864h5.909V9.864H51.065V57.14H21.518V51.23H15.608v8.864A5.927,5.927,0,0,0,21.518,66H51.065a5.927,5.927,0,0,0,5.909-5.909V6.909A5.927,5.927,0,0,0,51.065,1Z" transform="translate(5.075 1.955)"/></svg>