<svg xmlns="http://www.w3.org/2000/svg" width="16.07" height="13.049" viewBox="0 0 16.07 13.049"><path d="M16.07,58.988a6.584,6.584,0,0,1-1.893.519,3.31,3.31,0,0,0,1.45-1.823,6.646,6.646,0,0,1-2.094.8,3.3,3.3,0,0,0-5.617,3.006A9.359,9.359,0,0,1,1.12,58.046a3.3,3.3,0,0,0,1.022,4.4,3.3,3.3,0,0,1-1.493-.414v.041a3.3,3.3,0,0,0,2.644,3.233,3.339,3.339,0,0,1-.87.115A3.164,3.164,0,0,1,1.8,65.36a3.3,3.3,0,0,0,3.08,2.289A6.614,6.614,0,0,1,.789,69.056,7,7,0,0,1,0,69.013,9.319,9.319,0,0,0,5.053,70.5a9.314,9.314,0,0,0,9.379-9.379l-.011-.427A6.583,6.583,0,0,0,16.07,58.988Z" transform="translate(0 -57.448)" fill="#fff"/></svg>