<svg xmlns="http://www.w3.org/2000/svg" width="199.417" height="49" viewBox="0 0 199.417 49">
  <g id="logo" transform="translate(0.333 0.467)">
    <path id="Path_1485" data-name="Path 1485" d="M10.934-3.533A3.971,3.971,0,0,0,14.309-5.1a7.278,7.278,0,0,0,1.178-4.447,7.238,7.238,0,0,0-1.178-4.438,3.979,3.979,0,0,0-3.375-1.556A4,4,0,0,0,7.55-13.983,7.2,7.2,0,0,0,6.363-9.545,7.238,7.238,0,0,0,7.55-5.1,3.994,3.994,0,0,0,10.934-3.533Zm9.809-6.012a11.107,11.107,0,0,1-2.426,7.216q-2.426,3-7.365,3t-7.365-3A11.107,11.107,0,0,1,1.16-9.545a11.181,11.181,0,0,1,2.426-7.189q2.426-3.041,7.365-3.041t7.365,3.041A11.181,11.181,0,0,1,20.742-9.545ZM31.719-19.617a6.18,6.18,0,0,1,3.094.765,6.085,6.085,0,0,1,2.2,2.118v-9.141h5.08V0H37.22V-2.654A7.066,7.066,0,0,1,34.777-.176,6.86,6.86,0,0,1,31.367.6a7.12,7.12,0,0,1-5.651-2.716,10.429,10.429,0,0,1-2.294-6.97A12,12,0,0,1,25.68-16.8,7.349,7.349,0,0,1,31.719-19.617Zm1.09,16A3.7,3.7,0,0,0,36.043-5.2,6.989,6.989,0,0,0,37.15-9.3q0-3.516-1.775-5.027a3.821,3.821,0,0,0-2.531-.914,3.519,3.519,0,0,0-3.226,1.661A7.7,7.7,0,0,0,28.59-9.457a7.627,7.627,0,0,0,1.046,4.245A3.538,3.538,0,0,0,32.808-3.621ZM47.74,3.674l.633.035a7.9,7.9,0,0,0,1.406-.053,2.525,2.525,0,0,0,1.125-.4A2.7,2.7,0,0,0,51.721,2a2.638,2.638,0,0,0,.308-1.16L45-19.16H50.57L54.753-5.027,58.709-19.16h5.326L57.46-.316q-1.9,5.449-3.006,6.759t-4.43,1.31q-.668,0-1.072-.009T47.74,7.682ZM71.214-6.117a3.345,3.345,0,0,0,.686,1.9q.932,1,3.445,1a5.252,5.252,0,0,0,2.347-.439,1.408,1.408,0,0,0,.87-1.318,1.421,1.421,0,0,0-.7-1.283A28.6,28.6,0,0,0,72.638-7.77,10.873,10.873,0,0,1,68.05-9.791a4.383,4.383,0,0,1-1.336-3.445A5.976,5.976,0,0,1,68.8-17.8a8.366,8.366,0,0,1,5.862-1.907A10.755,10.755,0,0,1,80.5-18.272q2.259,1.433,2.593,4.948h-5.01a2.964,2.964,0,0,0-.545-1.529,3.428,3.428,0,0,0-2.812-1.02,4.041,4.041,0,0,0-2.329.51,1.467,1.467,0,0,0-.694,1.2,1.308,1.308,0,0,0,.738,1.248,31.96,31.96,0,0,0,5.221,1.389A9.589,9.589,0,0,1,82.148-9.4a4.829,4.829,0,0,1,1.477,3.6,5.823,5.823,0,0,1-2.118,4.649Q79.388.65,74.958.65q-4.518,0-6.671-1.907a6.2,6.2,0,0,1-2.153-4.86Zm20.345,0a3.345,3.345,0,0,0,.686,1.9q.932,1,3.445,1a5.252,5.252,0,0,0,2.347-.439,1.408,1.408,0,0,0,.87-1.318,1.421,1.421,0,0,0-.7-1.283A28.6,28.6,0,0,0,92.983-7.77,10.873,10.873,0,0,1,88.4-9.791a4.383,4.383,0,0,1-1.336-3.445A5.976,5.976,0,0,1,89.143-17.8,8.366,8.366,0,0,1,95-19.705a10.755,10.755,0,0,1,5.845,1.433q2.259,1.433,2.593,4.948h-5.01a2.964,2.964,0,0,0-.545-1.529,3.428,3.428,0,0,0-2.812-1.02,4.041,4.041,0,0,0-2.329.51,1.467,1.467,0,0,0-.694,1.2,1.308,1.308,0,0,0,.738,1.248,31.96,31.96,0,0,0,5.221,1.389A9.589,9.589,0,0,1,102.493-9.4a4.829,4.829,0,0,1,1.477,3.6,5.823,5.823,0,0,1-2.118,4.649Q99.733.65,95.3.65q-4.518,0-6.671-1.907a6.2,6.2,0,0,1-2.153-4.86Zm24-9.422a3.4,3.4,0,0,0-2.7,1.09,5.44,5.44,0,0,0-1.2,2.953h7.787a4.361,4.361,0,0,0-1.2-3.015A3.739,3.739,0,0,0,115.561-15.539Zm0-4.131a10.042,10.042,0,0,1,4.307.9,7.544,7.544,0,0,1,3.164,2.83,9.656,9.656,0,0,1,1.459,3.955,25.542,25.542,0,0,1,.158,3.8H111.536a4.761,4.761,0,0,0,1.811,4.043,4.264,4.264,0,0,0,2.5.721,3.592,3.592,0,0,0,2.514-.879,4.174,4.174,0,0,0,.932-1.318H124.4a6.355,6.355,0,0,1-1.775,3.463A8.7,8.7,0,0,1,115.737.633a9.717,9.717,0,0,1-6.451-2.355q-2.795-2.355-2.795-7.664,0-4.975,2.522-7.629A8.625,8.625,0,0,1,115.561-19.67Zm13.56,23.344.633.035a7.9,7.9,0,0,0,1.406-.053,2.525,2.525,0,0,0,1.125-.4A2.7,2.7,0,0,0,133.1,2a2.638,2.638,0,0,0,.308-1.16l-7.031-20h5.572l4.184,14.133L140.09-19.16h5.326L138.842-.316q-1.9,5.449-3.006,6.759t-4.43,1.31q-.668,0-1.072-.009t-1.213-.062Z" transform="translate(53.667 33.533)" fill="#fff"/>
    <path id="Subtraction_7" data-name="Subtraction 7" d="M49,49H46.269A3.5,3.5,0,0,1,49,44.871V49Zm-8.47,0H33.668a3.5,3.5,0,1,1,6.859,0Zm-11.2,0H22.469a3.5,3.5,0,1,1,6.859,0Zm-12.6,0H9.869a3.5,3.5,0,1,1,6.861,0Zm-12.6,0H0V44.871A3.5,3.5,0,0,1,4.2,48.3a3.512,3.512,0,0,1-.07.7ZM42.7,40.6a3.5,3.5,0,1,1,3.5-3.5A3.5,3.5,0,0,1,42.7,40.6Zm-11.2,0A3.5,3.5,0,1,1,35,37.1,3.5,3.5,0,0,1,31.5,40.6Zm-12.6,0a3.5,3.5,0,1,1,3.5-3.5A3.5,3.5,0,0,1,18.9,40.6Zm-11.2,0a3.5,3.5,0,1,1,3.5-3.5A3.5,3.5,0,0,1,7.7,40.6ZM49,28h0c-1.543,0-2.8-1.571-2.8-3.5S47.454,21,49,21v7ZM37.1,28a3.5,3.5,0,1,1,3.5-3.5A3.5,3.5,0,0,1,37.1,28ZM25.9,28a3.5,3.5,0,1,1,3.5-3.5A3.5,3.5,0,0,1,25.9,28ZM13.3,28a3.5,3.5,0,1,1,3.5-3.5A3.5,3.5,0,0,1,13.3,28ZM.7,28A3.492,3.492,0,0,1,0,27.93V21.07A3.5,3.5,0,1,1,.7,28Zm42-11.2a3.5,3.5,0,1,1,3.5-3.5A3.5,3.5,0,0,1,42.7,16.8Zm-11.2,0A3.5,3.5,0,1,1,35,13.3,3.5,3.5,0,0,1,31.5,16.8Zm-12.6,0a3.5,3.5,0,1,1,3.5-3.5A3.5,3.5,0,0,1,18.9,16.8Zm-11.2,0a3.5,3.5,0,1,1,3.5-3.5A3.5,3.5,0,0,1,7.7,16.8ZM37.1,4.2A3.5,3.5,0,0,1,33.669,0h6.859A3.5,3.5,0,0,1,37.1,4.2Zm-11.2,0A3.5,3.5,0,0,1,22.469,0h6.859A3.5,3.5,0,0,1,25.9,4.2Zm-12.6,0A3.5,3.5,0,0,1,9.8.7a3.557,3.557,0,0,1,.07-.7h6.86A3.5,3.5,0,0,1,13.3,4.2ZM.7,4.2a3.493,3.493,0,0,1-.7-.07V0H4.129A3.522,3.522,0,0,1,4.2.7,3.5,3.5,0,0,1,.7,4.2ZM49,4.13h0A3.5,3.5,0,0,1,46.268,0H49V4.128Z" transform="translate(-0.333 -0.467)" fill="#fff"/>
  </g>
</svg>
